<svg xmlns="http://www.w3.org/2000/svg" version="1.1" xmlns:xlink="http://www.w3.org/1999/xlink" xmlns:svgjs="http://svgjs.dev/svgjs" width="1000" height="1944" viewBox="0 0 1000 1944"><g transform="matrix(1,0,0,1,1.078041104216993,0.7870445344128711)"><svg viewBox="0 0 127 247" data-background-color="#ffffff" preserveAspectRatio="xMidYMid meet" height="1944" width="1000" xmlns="http://www.w3.org/2000/svg" xmlns:xlink="http://www.w3.org/1999/xlink"><g id="tight-bounds" transform="matrix(1,0,0,1,-0.1369112202355609,-0.09999999999999432)"><svg viewBox="0 0 127.2738224404711 247.2" height="247.2" width="127.2738224404711"><g><svg viewBox="0 0 190.9058972554539 370.7906064" height="247.2" width="127.2738224404711"><g><svg viewBox="0 0 190.9058972554539 370.7906064" height="370.7906064" width="190.9058972554539"><g><svg viewBox="0 0 190.9058972554539 370.7906064" height="370.7906064" width="190.9058972554539"><g><rect width="190.9058972554539" height="247.2" fill="none" stroke-width="9.018103199999999" stroke="#ed1703" data-fill-palette-color="none" data-stroke-palette-color="tertiary"></rect><rect width="190.9058972554539" height="123.5906064" y="247.2" fill="#ed1703" data-fill-palette-color="tertiary"></rect></g><g><svg viewBox="0 0 190.9058972554539 247.2" height="247.2" width="190.9058972554539"><g transform="matrix(1,0,0,1,23.607599999999998,23.607599999999998)"><svg width="143.69069725545393" viewBox="7.079999923706055 -34.689998626708984 24.92999839782715 34.689998626708984" height="199.9848" data-palette-color="#ed1703"><path d="M29.98-25.17L29.98-25.17Q29.98-23.44 29.57-21.88 29.15-20.31 28.27-18.9 27.39-17.48 25.84-16.44 24.29-15.41 22.22-14.92L22.22-14.92 32.01 0 27.37 0 17.97-14.45 11.25-14.45 11.25 0 7.08 0 7.08-34.69 19.82-34.69Q20.7-34.69 21.41-34.64 22.12-34.59 23.23-34.39 24.34-34.18 25.2-33.83 26.05-33.47 26.99-32.75 27.93-32.03 28.55-31.05 29.17-30.08 29.58-28.56 29.98-27.05 29.98-25.17ZM11.25-31.05L11.25-18.12 17.24-18.12Q18.48-18.12 19.43-18.2 20.39-18.29 21.67-18.66 22.95-19.04 23.79-19.71 24.63-20.39 25.23-21.67 25.83-22.95 25.83-24.71L25.83-24.71Q25.83-25.95 25.51-26.95 25.2-27.95 24.71-28.6 24.22-29.25 23.51-29.72 22.8-30.2 22.14-30.44 21.48-30.69 20.68-30.83 19.87-30.98 19.35-31.02 18.82-31.05 18.24-31.05L18.24-31.05 11.25-31.05Z" opacity="1" transform="matrix(1,0,0,1,0,0)" fill="#ed1703" class="undefined-text-0" data-fill-palette-color="primary" id="text-0"></path></svg></g></svg></g></svg></g></svg></g><g></g></svg></g><defs></defs></svg><rect width="127.2738224404711" height="247.2" fill="none" stroke="none" visibility="hidden"></rect></g></svg></g></svg>